:FULLY-SPECIFIED
:FORCE-ALL-JOINTS-BE-3DOF
:DEGREES
501
root 10.5845 16.8868 34.2621 5.8379 4.65694 5.08071
lfemur 20.063 1.29943 -27.7093
ltibia -3.43971e-14 0 0
lfoot -15.9682 4.23847 0
ltoes -5.85522 0 0
rfemur -42.5781 8.44547 11.5281
rtibia 28.57 0 0
rfoot -24.2007 -13.6342 0
rtoes -28.3161 0 0
lowerback -7.83039 -5.31806 -6.00319
upperback 0.710255 -6.59914 1.5137
thorax 5.99655 -3.47248 4.04434
lowerneck -23.7992 -2.64206 -10.0447
upperneck 23.6388 -3.22451 11.2306
head 12.0895 -0.885626 5.42479
lclavicle 1.13195e-15 1.2958e-15 0
lhumerus -16.3986 -25.1764 88.7605
lradius 34.814 0 0
lwrist 6.76597 0 0
lhand -16.2783 -26.8831 0
lfingers 7.12502 0 0
lthumb 9.93089 2.84546 0
rclavicle 1.13195e-15 1.2958e-15 0
rhumerus -49.0448 4.92554 -83.2415
rradius 31.5111 0 0
rwrist -15.823 0 0
rhand -29.2536 -22.3724 0
rfingers 7.12502 0 0
rthumb -2.59663 -52.3354 0
502
root 10.5442 16.8557 34.5459 5.95163 4.77253 4.87237
lfemur 20.9566 1.10425 -27.1903
ltibia -1.72943e-14 0 0
lfoot -15.4559 4.26427 0
ltoes -7.83513 0 0
rfemur -42.6145 7.39685 12.6633
rtibia 29.859 0 0
rfoot -24.2578 -13.5791 0
rtoes -27.9996 0 0
lowerback -7.71375 -5.29315 -5.76502
upperback 0.516494 -6.60091 1.59354
thorax 5.70771 -3.4574 4.01683
lowerneck -23.7842 -2.68028 -10.1484
upperneck 23.5324 -3.23735 11.2473
head 12.0491 -0.898594 5.44186
lclavicle 2.03987e-14 -2.98174e-15 0
lhumerus -17.7701 -25.0612 89.6743
lradius 34.4817 0 0
lwrist 7.1795 0 0
lhand -14.8706 -26.7277 0
lfingers 7.12502 0 0
lthumb 11.2886 2.92901 0
rclavicle 2.03987e-14 -2.98174e-15 0
rhumerus -49.3143 4.326 -82.7876
rradius 30.5694 0 0
rwrist -15.1323 0 0
rhand -28.9081 -23.8823 0
rfingers 7.12502 0 0
rthumb -2.26295 -53.849 0
503
root 10.5116 16.8309 34.7723 6.04093 4.88967 4.70347
lfemur 21.673 0.923961 -26.7687
ltibia -2.35598e-15 0 0
lfoot -15.0443 4.28664 0
ltoes -9.40942 0 0
rfemur -42.6502 6.55601 13.5745
rtibia 30.9532 0 0
rfoot -24.3836 -13.4577 0
rtoes -27.3034 0 0
lowerback -7.59178 -5.27424 -5.56141
upperback 0.336229 -6.60722 1.65414
thorax 5.43226 -3.44568 3.98762
lowerneck -23.7423 -2.7111 -10.2458
upperneck 23.4605 -3.24855 11.2683
head 12.0167 -0.910574 5.46112
lclavicle 3.86995e-14 -6.86172e-15 0
lhumerus -18.9175 -24.9988 90.4335
lradius 34.2243 0 0
lwrist 7.59825 0 0
lhand -13.603 -26.5947 0
lfingers 7.12502 0 0
lthumb 12.5112 2.9984 0
rclavicle 3.86995e-14 -6.86172e-15 0
rhumerus -49.5775 3.84698 -82.4381
rradius 29.8131 0 0
rwrist -14.5889 0 0
rhand -28.5845 -25.3119 0
rfingers 7.12502 0 0
rthumb -1.95037 -55.2821 0
504
root 10.4955 16.8175 34.8812 6.09085 4.98422 4.63218
lfemur 22.017 0.798096 -26.5693
ltibia 5.16102e-15 0 0
lfoot -14.8928 4.29258 0
ltoes -10.1232 0 0
rfemur -42.6721 6.13692 14.0109
rtibia 31.5203 0 0
rfoot -24.5093 -13.3363 0
rtoes -26.6073 0 0
lowerback -7.52079 -5.27188 -5.46351
upperback 0.226886 -6.62092 1.67735
thorax 5.26903 -3.44372 3.96851
lowerneck -23.6821 -2.72819 -10.3181
upperneck 23.4308 -3.25667 11.2956
head 11.9964 -0.918727 5.48086
lclavicle 5.15751e-14 -9.76986e-15 0
lhumerus -19.5087 -25.0654 90.832
lradius 34.1448 0 0
lwrist 7.96401 0 0
lhand -12.85 -26.5392 0
lfingers 7.12502 0 0
lthumb 13.2377 3.01792 0
rclavicle 5.15751e-14 -9.76986e-15 0
rhumerus -49.7529 3.62365 -82.2963
rradius 29.4442 0 0
rwrist -14.3582 0 0
rhand -28.3622 -26.3326 0
rfingers 7.12502 0 0
rthumb -1.73571 -56.3052 0
